<?xml version="1.0" encoding="iso-8859-1"?>
<!-- Generator: Adobe Illustrator 19.0.0, SVG Export Plug-In . SVG Version: 6.00 Build 0)  -->
<svg version="1.1" id="Capa_1" xmlns="http://www.w3.org/2000/svg" xmlns:xlink="http://www.w3.org/1999/xlink" x="0px" y="0px"
	 viewBox="0 0 512.002 512.002" style="enable-background:new 0 0 512.002 512.002;" xml:space="preserve">
<path style="fill:#7DAEF4;" d="M461.542,78.732c0.612-33.64-39.68-52.798-65.812-30.81C360.72,4.218,291.141,21.49,279.577,75.246
	l-0.06,0.232c-0.003,0.011-0.299,1.135-1.143,2.387l-0.242,0.359c0.732,0.934,19.02,15.86,24.998,44.223l0.236,1.056l0.099-0.126
	c1.024,2.561,4.784,9.411,15.118,7.194c44.368-14.042,89.155,21.717,84.895,68.434l-0.047,0.52l0.522,0.035
	c20.934,1.39,40.835-5.433,56.097-18.055h0.557c28.34,0,51.395-23.056,51.395-51.396C512.001,102.173,489.414,79.234,461.542,78.732
	z"/>
<g>
	<path style="fill:#91CBF2;" d="M42.883,316.383c-0.508,0-1.022-0.051-1.539-0.156c-4.143-0.846-6.816-4.89-5.97-9.033l0.51-2.5
		c0.846-4.144,4.892-6.816,9.033-5.97c4.143,0.846,6.816,4.89,5.97,9.033l-0.51,2.5C49.636,313.883,46.446,316.383,42.883,316.383z"
		/>
	<path style="fill:#91CBF2;" d="M13.135,462.092c-0.508,0-1.022-0.051-1.539-0.157c-4.143-0.845-6.816-4.89-5.97-9.033l0.991-4.857
		c0.846-4.143,4.889-6.813,9.033-5.97c4.143,0.845,6.816,4.89,5.97,9.033l-0.991,4.857
		C19.888,459.591,16.697,462.092,13.135,462.092z M19.085,432.951c-4.858,0-8.476-4.453-7.509-9.189l0.991-4.857
		c0.845-4.143,4.891-6.815,9.033-5.97c4.143,0.845,6.816,4.89,5.97,9.033l-0.991,4.857
		C25.838,430.449,22.647,432.951,19.085,432.951z M25.035,403.808c-0.508,0-1.022-0.051-1.539-0.156
		c-4.143-0.845-6.816-4.89-5.97-9.033l0.991-4.857c0.846-4.143,4.889-6.815,9.033-5.97c4.143,0.845,6.816,4.89,5.97,9.033
		l-0.991,4.857C31.788,401.307,28.597,403.808,25.035,403.808z M30.984,374.667c-0.508,0-1.022-0.051-1.539-0.156
		c-4.143-0.845-6.816-4.89-5.97-9.033l0.991-4.857c0.845-4.142,4.891-6.816,9.033-5.97c4.143,0.845,6.816,4.89,5.97,9.033
		l-0.991,4.857C37.738,372.166,34.547,374.667,30.984,374.667z M36.934,345.525c-0.508,0-1.022-0.051-1.539-0.156
		c-4.143-0.845-6.816-4.89-5.97-9.033l0.991-4.857c0.846-4.142,4.892-6.816,9.033-5.97c4.143,0.845,6.816,4.89,5.97,9.033
		l-0.991,4.857C43.687,343.024,40.496,345.525,36.934,345.525z"/>
	<path style="fill:#91CBF2;" d="M7.666,488.877c-0.508,0-1.023-0.051-1.541-0.156c-4.143-0.847-6.815-4.892-5.968-9.035l0.511-2.5
		c0.846-4.142,4.892-6.814,9.034-5.968c4.143,0.847,6.815,4.892,5.968,9.035l-0.511,2.5
		C14.419,486.377,11.228,488.877,7.666,488.877z"/>
	<path style="fill:#91CBF2;" d="M111.567,333.024c-4.124-0.931-6.713-5.03-5.781-9.154l0.562-2.489
		c0.932-4.125,5.029-6.715,9.155-5.781c4.124,0.931,6.713,5.03,5.781,9.154l-0.562,2.489
		C119.787,331.379,115.677,333.955,111.567,333.024z"/>
	<path style="fill:#91CBF2;" d="M82.93,459.788c-4.124-0.932-6.712-5.03-5.78-9.155l1.193-5.281c0.932-4.123,5.03-6.711,9.155-5.78
		c4.124,0.932,6.712,5.03,5.78,9.155l-1.193,5.281C91.153,458.13,87.055,460.721,82.93,459.788z M91.783,428.287
		c-0.559,0-1.126-0.062-1.694-0.19c-4.124-0.932-6.712-5.03-5.78-9.155l1.193-5.281c0.932-4.123,5.03-6.71,9.155-5.78
		c4.124,0.932,6.712,5.03,5.78,9.155l-1.193,5.281C98.44,425.873,95.282,428.287,91.783,428.287z M98.943,396.596
		c-0.559,0-1.126-0.062-1.694-0.19c-4.124-0.932-6.712-5.03-5.78-9.155l1.193-5.281c0.932-4.123,5.029-6.713,9.155-5.78
		c4.124,0.932,6.712,5.03,5.78,9.155l-1.193,5.281C105.6,394.182,102.441,396.596,98.943,396.596z M104.407,364.715
		c-4.125-0.932-6.712-5.03-5.78-9.155l1.193-5.281c0.932-4.124,5.029-6.712,9.155-5.78c4.125,0.932,6.712,5.03,5.78,9.155
		l-1.193,5.281C112.631,363.057,108.532,365.648,104.407,364.715z"/>
	<path style="fill:#91CBF2;" d="M76.401,488.687c-4.124-0.932-6.711-5.031-5.779-9.155l0.563-2.489
		c0.932-4.124,5.032-6.713,9.156-5.78c4.124,0.932,6.712,5.031,5.779,9.155l-0.563,2.489
		C84.624,487.03,80.526,489.62,76.401,488.687z"/>
	<path style="fill:#91CBF2;" d="M181.998,333.024c-4.124-0.931-6.713-5.03-5.781-9.154l0.562-2.489
		c0.932-4.125,5.031-6.715,9.155-5.781c4.124,0.931,6.713,5.03,5.781,9.154l-0.562,2.489
		C190.218,331.379,186.108,333.955,181.998,333.024z"/>
	<path style="fill:#91CBF2;" d="M155.055,459.978c-4.905,0-8.558-4.55-7.474-9.346l1.193-5.281c0.932-4.123,5.031-6.711,9.155-5.78
		c4.124,0.932,6.712,5.03,5.78,9.155l-1.193,5.281C161.712,457.564,158.553,459.978,155.055,459.978z M160.52,428.097
		c-4.124-0.932-6.712-5.03-5.78-9.155l1.193-5.281c0.932-4.123,5.03-6.71,9.155-5.78c4.124,0.932,6.712,5.03,5.78,9.155
		l-1.193,5.281C168.743,426.439,164.645,429.03,160.52,428.097z M167.679,396.406c-4.124-0.932-6.712-5.03-5.78-9.155l1.193-5.281
		c0.932-4.123,5.03-6.713,9.155-5.78c4.124,0.932,6.712,5.03,5.78,9.155l-1.193,5.281
		C175.902,394.748,171.804,397.339,167.679,396.406z M174.838,364.715c-4.124-0.932-6.712-5.03-5.78-9.155l1.193-5.281
		c0.932-4.124,5.03-6.712,9.155-5.78s6.712,5.03,5.78,9.155l-1.193,5.281C183.062,363.057,178.963,365.648,174.838,364.715z"/>
	<path style="fill:#91CBF2;" d="M146.831,488.687c-4.124-0.932-6.712-5.031-5.779-9.155l0.563-2.489
		c0.933-4.124,5.032-6.713,9.156-5.78c4.124,0.932,6.711,5.031,5.779,9.155l-0.563,2.489
		C155.055,487.03,150.956,489.62,146.831,488.687z"/>
	<path style="fill:#91CBF2;" d="M252.428,333.024c-4.124-0.931-6.713-5.03-5.781-9.154l0.562-2.489
		c0.932-4.125,5.03-6.715,9.155-5.781c4.125,0.931,6.713,5.03,5.781,9.154l-0.562,2.489
		C260.648,331.379,256.538,333.955,252.428,333.024z"/>
	<path style="fill:#91CBF2;" d="M225.485,459.978c-0.559,0-1.126-0.062-1.694-0.19c-4.125-0.932-6.712-5.03-5.78-9.155l1.193-5.281
		c0.932-4.123,5.031-6.711,9.155-5.78c4.124,0.932,6.712,5.03,5.78,9.155l-1.193,5.281
		C232.142,457.564,228.984,459.978,225.485,459.978z M232.645,428.287c-4.905,0-8.558-4.55-7.474-9.346l1.193-5.281
		c0.932-4.123,5.031-6.71,9.155-5.78c4.124,0.932,6.712,5.03,5.78,9.155l-1.193,5.281
		C239.302,425.873,236.143,428.287,232.645,428.287z M239.804,396.596c-4.905,0-8.558-4.55-7.474-9.346l1.193-5.281
		c0.932-4.123,5.031-6.713,9.155-5.78c4.124,0.932,6.712,5.03,5.78,9.155l-1.193,5.281
		C246.461,394.182,243.302,396.596,239.804,396.596z M246.963,364.905c-4.905,0-8.558-4.55-7.474-9.346l1.193-5.281
		c0.932-4.124,5.03-6.712,9.155-5.78s6.712,5.03,5.78,9.155l-1.193,5.281C253.62,362.491,250.461,364.905,246.963,364.905z"/>
	<path style="fill:#91CBF2;" d="M217.262,488.687c-4.124-0.932-6.711-5.031-5.779-9.155l0.563-2.489
		c0.933-4.124,5.033-6.713,9.156-5.78c4.124,0.932,6.712,5.031,5.779,9.155l-0.563,2.489
		C225.485,487.03,221.387,489.62,217.262,488.687z"/>
	<path style="fill:#91CBF2;" d="M320.941,333.051c-4.135-0.88-6.775-4.946-5.894-9.082l0.531-2.496
		c0.88-4.135,4.946-6.77,9.082-5.894c4.135,0.88,6.775,4.946,5.894,9.082l-0.531,2.496
		C329.149,331.261,325.115,333.934,320.941,333.051z"/>
	<path style="fill:#91CBF2;" d="M293.941,459.804c-4.135-0.88-6.774-4.946-5.893-9.082l1.125-5.281
		c0.88-4.135,4.944-6.772,9.083-5.892c4.135,0.88,6.774,4.947,5.893,9.082l-1.125,5.281
		C302.148,458.028,298.096,460.69,293.941,459.804z M300.691,428.115c-4.135-0.88-6.774-4.947-5.893-9.082l1.125-5.281
		c0.88-4.135,4.943-6.776,9.083-5.892c4.135,0.88,6.774,4.946,5.893,9.082l-1.125,5.281
		C308.897,426.339,304.846,429,300.691,428.115z M307.441,396.428c-4.135-0.881-6.774-4.947-5.893-9.082l1.124-5.281
		c0.88-4.136,4.942-6.771,9.082-5.894c4.135,0.881,6.774,4.947,5.893,9.082l-1.124,5.281
		C315.65,394.638,311.617,397.31,307.441,396.428z M314.19,364.739c-4.135-0.88-6.774-4.946-5.893-9.082l1.125-5.281
		c0.881-4.135,4.945-6.774,9.083-5.892c4.135,0.88,6.774,4.947,5.893,9.082l-1.125,5.281
		C322.396,362.963,318.345,365.624,314.19,364.739z"/>
	<path style="fill:#91CBF2;" d="M287.785,488.707c-4.135-0.88-6.774-4.947-5.892-9.082l0.532-2.496
		c0.881-4.136,4.944-6.779,9.083-5.892c4.135,0.88,6.774,4.947,5.892,9.082l-0.532,2.496
		C295.991,486.931,291.94,489.592,287.785,488.707z"/>
	<path style="fill:#91CBF2;" d="M393.497,316.226c-4.143-0.846-6.815-4.89-5.97-9.033l0.51-2.5c0.846-4.144,4.891-6.816,9.033-5.97
		c4.143,0.846,6.816,4.89,5.97,9.033l-0.51,2.5C401.682,314.404,397.634,317.072,393.497,316.226z"/>
	<path style="fill:#91CBF2;" d="M363.749,461.936c-4.143-0.845-6.816-4.89-5.971-9.033l0.991-4.858
		c0.845-4.142,4.89-6.815,9.032-5.97c4.143,0.845,6.816,4.89,5.971,9.033l-0.991,4.858
		C371.933,460.12,367.877,462.781,363.749,461.936z M369.697,432.794c-4.142-0.846-6.815-4.891-5.969-9.034l0.992-4.857
		c0.845-4.143,4.889-6.813,9.033-5.969c4.143,0.846,6.815,4.891,5.969,9.034l-0.992,4.857
		C377.884,430.966,373.841,433.641,369.697,432.794z M375.647,403.652c-4.143-0.846-6.815-4.891-5.969-9.034l0.992-4.857
		c0.845-4.142,4.89-6.818,9.033-5.969c4.143,0.846,6.816,4.891,5.969,9.034l-0.992,4.857
		C383.833,401.83,379.783,404.498,375.647,403.652z M381.597,374.511c-4.143-0.845-6.816-4.89-5.97-9.033l0.991-4.857
		c0.845-4.142,4.89-6.816,9.033-5.97c4.143,0.845,6.816,4.89,5.97,9.033l-0.991,4.857
		C389.783,372.689,385.733,375.356,381.597,374.511z M387.547,345.369c-4.143-0.845-6.816-4.89-5.97-9.033l0.991-4.857
		c0.846-4.142,4.892-6.816,9.033-5.97c4.143,0.845,6.815,4.89,5.97,9.033l-0.991,4.857
		C395.733,343.546,391.683,346.214,387.547,345.369z"/>
	<path style="fill:#91CBF2;" d="M358.28,488.721c-4.143-0.846-6.816-4.89-5.97-9.033l0.51-2.5c0.846-4.144,4.891-6.82,9.033-5.97
		c4.143,0.846,6.816,4.89,5.97,9.033l-0.51,2.5C366.465,486.898,362.417,489.567,358.28,488.721z"/>
	<path style="fill:#91CBF2;" d="M473.307,247.365c-4.158-0.766-6.908-4.757-6.143-8.916l0.462-2.509
		c0.766-4.158,4.76-6.911,8.916-6.143c4.158,0.766,6.908,4.757,6.143,8.916l-0.462,2.509
		C481.451,245.413,477.428,248.127,473.307,247.365z"/>
	<path style="fill:#91CBF2;" d="M435.392,460.955c-4.806,0-8.401-4.354-7.538-9.044l0.936-5.083
		c0.766-4.159,4.758-6.908,8.916-6.143c4.158,0.766,6.908,4.757,6.143,8.916l-0.936,5.083
		C442.233,458.374,439.014,460.955,435.392,460.955z M439.612,430.333c-4.158-0.766-6.909-4.758-6.143-8.916l0.936-5.082
		c0.766-4.159,4.762-6.915,8.916-6.143c4.158,0.766,6.909,4.758,6.143,8.916l-0.936,5.082
		C447.756,428.378,443.735,431.096,439.612,430.333z M445.228,399.838c-4.158-0.766-6.909-4.758-6.143-8.916l0.936-5.082
		c0.767-4.158,4.759-6.913,8.916-6.143c4.158,0.766,6.909,4.758,6.143,8.916l-0.936,5.082
		C453.372,397.883,449.351,400.601,445.228,399.838z M450.844,369.344c-4.158-0.766-6.908-4.758-6.143-8.916l0.936-5.083
		c0.766-4.159,4.756-6.91,8.916-6.143c4.158,0.766,6.908,4.757,6.143,8.916l-0.936,5.083
		C458.988,367.392,454.965,370.106,450.844,369.344z M456.461,338.849c-4.158-0.766-6.909-4.757-6.144-8.915l0.936-5.083
		c0.765-4.16,4.757-6.913,8.915-6.144c4.158,0.766,6.909,4.757,6.144,8.915l-0.936,5.083
		C464.606,336.887,460.59,339.614,456.461,338.849z M462.075,308.354c-4.158-0.766-6.909-4.758-6.143-8.916l0.936-5.082
		c0.767-4.158,4.762-6.908,8.916-6.143c4.158,0.766,6.909,4.758,6.143,8.916l-0.936,5.082
		C470.219,306.399,466.198,309.117,462.075,308.354z M467.691,277.859c-4.158-0.766-6.909-4.758-6.143-8.916l0.936-5.082
		c0.767-4.157,4.758-6.912,8.916-6.143c4.158,0.766,6.909,4.758,6.143,8.916l-0.936,5.082
		C475.834,275.907,471.81,278.622,467.691,277.859z"/>
	<path style="fill:#91CBF2;" d="M428.855,488.749c-4.158-0.766-6.909-4.757-6.143-8.915l0.462-2.51
		c0.765-4.159,4.759-6.91,8.915-6.144c4.158,0.766,6.909,4.757,6.143,8.915l-0.462,2.51
		C437,486.795,432.976,489.511,428.855,488.749z"/>
</g>
<g>
	<path style="fill:#72A2ED;" d="M393.735,158.236c7.574,12.036,11.073,26.176,9.742,40.77l-0.047,0.52l0.522,0.035
		c20.934,1.39,40.835-5.433,56.097-18.055c0.517-0.062,11.369,0.728,23.723-5.54C474.57,178.984,419.517,180.217,393.735,158.236z"
		/>
	<path style="fill:#72A2ED;" d="M378.108,32.516c-38.654-23.233-89.071-1.246-98.531,42.73l-0.06,0.232
		c-0.003,0.011-0.299,1.135-1.143,2.387l-0.242,0.359c0.732,0.934,19.02,15.86,24.998,44.223l0.236,1.056l0.099-0.126
		c1.024,2.561,4.784,9.411,15.118,7.194c19.631-6.213,41.85-2.984,59.338,10.357C354.972,108.473,355.034,64.909,378.108,32.516z"/>
</g>
<path style="fill:#91CBF2;" d="M318.428,130.085c-12.18,2.609-14.788-7.757-14.788-7.757l-0.011,0.014
	c-14.849-70.449-105.42-91.408-149.925-34.956c-33.088-28.605-85.475-4.946-84.736,39.649c-36.189,0.288-65.44,29.702-65.44,65.959
	c0,36.436,29.537,65.973,65.973,65.973h0.961c29.6,24.594,68.875,29.597,102.017,16.986c49.61,19.569,108.002,14.847,155.119-16.986
	h10.703c36.436,0,65.973-29.537,65.973-65.973C404.274,148.452,360.919,116.636,318.428,130.085z"/>
<path style="fill:#69BDE2;" d="M208.506,55.793c-22.163,3.129-41.572,14.81-54.802,31.593
	c-33.143-28.652-85.483-4.876-84.736,39.649c-36.189,0.288-65.44,29.702-65.44,65.959c0,36.436,29.537,65.973,65.973,65.973h0.961
	c29.6,24.594,68.875,29.597,102.017,16.986c26.088,10.29,53.617,13.536,80.081,10.606
	C146.081,260.082,118.758,120.223,208.506,55.793z"/>
<g>
</g>
<g>
</g>
<g>
</g>
<g>
</g>
<g>
</g>
<g>
</g>
<g>
</g>
<g>
</g>
<g>
</g>
<g>
</g>
<g>
</g>
<g>
</g>
<g>
</g>
<g>
</g>
<g>
</g>
</svg>
